<svg xmlns:dc="http://purl.org/dc/elements/1.1/" xmlns:cc="http://creativecommons.org/ns#" xmlns:rdf="http://www.w3.org/1999/02/22-rdf-syntax-ns#" xmlns:svg="http://www.w3.org/2000/svg" xmlns="http://www.w3.org/2000/svg" xmlns:sodipodi="http://sodipodi.sourceforge.net/DTD/sodipodi-0.dtd" xmlns:inkscape="http://www.inkscape.org/namespaces/inkscape" version="1.1" x="0px" y="0px" viewBox="0 0 100 125"><g transform="translate(0,-952.36218)"><path style="text-indent:0;text-transform:none;direction:ltr;block-progression:tb;baseline-shift:baseline;color:#FFFFFF;enable-background:accumulate;" d="m 50,957.35642 c -16.53302,0 -30,13.46698 -30,30.00005 0,6.7249 3.83983,14.75613 6.34375,19.40623 l 21,39 a 3.0003,3.0003 0 0 0 5.3125,0 l 21,-39 C 76.16013,1002.1126 80,994.08137 80,987.35647 80,970.8234 66.53301,957.35642 50,957.35642 z m 0,6 c 13.29037,0 24,10.70965 24,24.00005 0,4.0236 -3.41899,12.4076 -5.65625,16.56253 L 50,1037.9815 31.65625,1003.919 C 29.41895,999.76397 26,991.38007 26,987.35647 c 0,-13.2904 10.70961,-24.00005 24,-24.00005 z m 0,8 c -8.80105,0 -16,7.19905 -16,16.00005 0,8.801 7.19898,16.00003 16,16.00003 8.80103,0 16,-7.19903 16,-16.00003 0,-8.801 -7.19894,-16.00005 -16,-16.00005 z m 0,6.00005 c 5.55836,0 10,4.4417 10,10 0,5.5583 -4.44161,10 -10,10 -5.55837,0 -10,-4.4417 -10,-10 0,-5.5583 4.44165,-10 10,-10 z" fill="#FFFFFF" fill-opacity="1" stroke="none" marker="none" visibility="visible" display="inline" overflow="visible"/></g></svg>
